SRRun01_grf
version=1
nRows=34
nColumns=19
inDegrees=no
endheader
time	ground_force_r_vx	ground_force_r_vy	ground_force_r_vz	ground_force_r_px	ground_force_r_py	ground_force_r_pz	ground_force_r_mx	ground_force_r_my	ground_force_r_mz	ground_force_l_vx	ground_force_l_vy	ground_force_l_vz	ground_force_l_px	ground_force_l_py	ground_force_l_pz	ground_force_l_mx	ground_force_l_my	ground_force_l_mz
    151.99800000	      0.00000000	      0.00000000	      0.00000000	      0.00000000	      0.00000000	      0.00000000	      0.00000000	      0.00000000	      0.00000000	     -8.19451676	    750.83193114	   -223.09520612	      0.75342999	      0.00000000	     -0.68676699	      0.00002424	    -25.72009975	      0.00003595
    151.99900000	      0.00000000	      0.00000000	      0.00000000	      0.00000000	      0.00000000	      0.00000000	      0.00000000	      0.00000000	      0.00000000	     -7.15463155	    724.00594168	   -214.45215630	      0.75350184	      0.00000000	     -0.68488643	      0.00002262	    -22.15724854	      0.00003467
    152.00000000	      0.00000000	      0.00000000	      0.00000000	      0.00000000	      0.00000000	      0.00000000	      0.00000000	      0.00000000	      0.00000000	     -5.44356504	    697.48651557	   -204.55118340	      0.75371905	      0.00000000	     -0.68325097	      0.00002109	    -17.76719139	      0.00003334
    152.00100000	      0.00000000	      0.00000000	      0.00000000	      0.00000000	      0.00000000	      0.00000000	      0.00000000	      0.00000000	      0.00000000	     -3.15763619	    671.35439195	   -194.04642907	      0.75407390	      0.00000000	     -0.68182859	      0.00001967	    -12.80802393	      0.00003193
    152.00200000	      0.00000000	      0.00000000	      0.00000000	      0.00000000	      0.00000000	      0.00000000	      0.00000000	      0.00000000	      0.00000000	     -0.42745024	    645.68918250	   -183.61824858	      0.75454748	      0.00000000	     -0.68057049	      0.00001839	     -7.57030319	      0.00003046
    152.00300000	      0.00000000	      0.00000000	      0.00000000	      0.00000000	      0.00000000	      0.00000000	      0.00000000	      0.00000000	      0.00000000	      2.59053852	    620.56361836	   -173.90372863	      0.75510939	      0.00000000	     -0.67941166	      0.00001729	     -2.35767459	      0.00002892
    152.00400000	      0.00000000	      0.00000000	      0.00000000	      0.00000000	      0.00000000	      0.00000000	      0.00000000	      0.00000000	      0.00000000	      5.72396007	    596.03870742	   -165.43284929	      0.75571841	      0.00000000	     -0.67827362	      0.00001638	      2.53337454	      0.00002733
    152.00500000	      0.00000000	      0.00000000	      0.00000000	      0.00000000	      0.00000000	      0.00000000	      0.00000000	      0.00000000	      0.00000000	      8.79511740	    572.15973902	   -158.57725414	      0.75632405	      0.00000000	     -0.67706967	      0.00001567	      6.83300030	      0.00002570
    152.00600000	      0.00000000	      0.00000000	      0.00000000	      0.00000000	      0.00000000	      0.00000000	      0.00000000	      0.00000000	      0.00000000	     11.63147348	    548.95319725	   -153.51722432	      0.75686894	      0.00000000	     -0.67571298	      0.00001513	     10.31518048	      0.00002405
    152.00700000	      0.00000000	      0.00000000	      0.00000000	      0.00000000	      0.00000000	      0.00000000	      0.00000000	      0.00000000	      0.00000000	     14.07543070	    526.42486394	   -150.23039629	      0.75729199	      0.00000000	     -0.67412689	      0.00001476	     12.81126728	      0.00002239
    152.00800000	      0.00000000	      0.00000000	      0.00000000	      0.00000000	      0.00000000	      0.00000000	      0.00000000	      0.00000000	      0.00000000	     15.99291262	    504.55949769	   -148.50320196	      0.75753202	      0.00000000	     -0.67225606	      0.00001452	     14.21892548	      0.00002074
    152.00900000	      0.00000000	      0.00000000	      0.00000000	      0.00000000	      0.00000000	      0.00000000	      0.00000000	      0.00000000	      0.00000000	     17.28033669	    483.32243106	   -147.96326239	      0.75753168	      0.00000000	     -0.67007607	      0.00001437	     14.50588902	      0.00001913
    152.01000000	      0.00000000	      0.00000000	      0.00000000	      0.00000000	      0.00000000	      0.00000000	      0.00000000	      0.00000000	      0.00000000	     17.86970041	    462.66329245	   -148.12844247	      0.75724132	      0.00000000	     -0.66759917	      0.00001427	     13.70847670	      0.00001759
    152.01100000	      0.00000000	      0.00000000	      0.00000000	      0.00000000	      0.00000000	      0.00000000	      0.00000000	      0.00000000	      0.00000000	     17.73169893	    442.52182613	   -148.46634729	      0.75662266	      0.00000000	     -0.66487446	      0.00001418	     11.92534821	      0.00001613
    152.01200000	      0.00000000	      0.00000000	      0.00000000	      0.00000000	      0.00000000	      0.00000000	      0.00000000	      0.00000000	      0.00000000	     16.87695787	    422.83542557	   -148.45695258	      0.75565218	      0.00000000	     -0.66198189	      0.00001407	      9.30743789	      0.00001479
    152.01300000	      0.00000000	      0.00000000	      0.00000000	      0.00000000	      0.00000000	      0.00000000	      0.00000000	      0.00000000	      0.00000000	     15.35552533	    403.54757675	   -147.65091464	      0.75432417	      0.00000000	     -0.65902038	      0.00001390	      6.04526016	      0.00001360
    152.01400000	      0.00000000	      0.00000000	      0.00000000	      0.00000000	      0.00000000	      0.00000000	      0.00000000	      0.00000000	      0.00000000	     13.25471436	    384.61609306	   -145.71690832	      0.75265343	      0.00000000	     -0.65609060	      0.00001365	      2.35482626	      0.00001256
    152.01500000	      0.00000000	      0.00000000	      0.00000000	      0.00000000	      0.00000000	      0.00000000	      0.00000000	      0.00000000	      0.00000000	     10.69529662	    366.01988767	   -142.47297501	      0.75067731	      0.00000000	     -0.65327449	      0.00001331	     -1.53668480	      0.00001168
    152.01600000	      0.00000000	      0.00000000	      0.00000000	      0.00000000	      0.00000000	      0.00000000	      0.00000000	      0.00000000	      0.00000000	      7.82599976	    347.76304039	   -137.89904660	      0.74845657	      0.00000000	     -0.65061475	      0.00001288	     -5.40452261	      0.00001098
    152.01700000	      0.00000000	      0.00000000	      0.00000000	      0.00000000	      0.00000000	      0.00000000	      0.00000000	      0.00000000	      0.00000000	      4.81626624	    329.87512539	   -132.13016453	      0.74607464	      0.00000000	     -0.64809846	      0.00001237	     -9.03843972	      0.00001044
    152.01800000	      0.00000000	      0.00000000	      0.00000000	      0.00000000	      0.00000000	      0.00000000	      0.00000000	      0.00000000	      0.00000000	      1.84729557	    312.40732315	   -125.43210782	      0.74363489	      0.00000000	     -0.64564930	      0.00001179	    -12.25265929	      0.00001006
    152.01900000	      0.00000000	      0.00000000	      0.00000000	      0.00000000	      0.00000000	      0.00000000	      0.00000000	      0.00000000	      0.00000000	     -0.89843486	    295.42473115	   -118.16301767	      0.74125592	      0.00000000	     -0.64313173	      0.00001117	    -14.89337964	      0.00000982
    152.02000000	      0.00000000	      0.00000000	      0.00000000	      0.00000000	      0.00000000	      0.00000000	      0.00000000	      0.00000000	      0.00000000	     -3.24871565	    278.99625435	   -110.72609684	      0.73906517	      0.00000000	     -0.64036828	      0.00001052	    -16.84370918	      0.00000970
    152.02100000	      0.00000000	      0.00000000	      0.00000000	      0.00000000	      0.00000000	      0.00000000	      0.00000000	      0.00000000	      0.00000000	     -5.05352758	    263.18410741	   -103.51940337	      0.73719137	      0.00000000	     -0.63716894	      0.00000986	    -18.02618692	      0.00000966
    152.02200000	      0.00000000	      0.00000000	      0.00000000	      0.00000000	      0.00000000	      0.00000000	      0.00000000	      0.00000000	      0.00000000	     -6.19650968	    248.03501619	    -96.88889199	      0.73575597	      0.00000000	     -0.63336885	      0.00000921	    -18.40328326	      0.00000968
    152.02300000	      0.00000000	      0.00000000	      0.00000000	      0.00000000	      0.00000000	      0.00000000	      0.00000000	      0.00000000	      0.00000000	     -6.60507152	    233.57470074	    -91.09013225	      0.73486411	      0.00000000	     -0.62886916	      0.00000858	    -17.97639292	      0.00000972
    152.02400000	      0.00000000	      0.00000000	      0.00000000	      0.00000000	      0.00000000	      0.00000000	      0.00000000	      0.00000000	      0.00000000	     -6.25817941	    219.80641866	    -86.26281631	      0.73459535	      0.00000000	     -0.62367596	      0.00000796	    -16.78373226	      0.00000974
    152.02500000	      0.00000000	      0.00000000	      0.00000000	      0.00000000	      0.00000000	      0.00000000	      0.00000000	      0.00000000	      0.00000000	     -5.19078212	    206.71348347	    -82.42056651	      0.73499498	      0.00000000	     -0.61793216	      0.00000736	    -14.89728932	      0.00000971
    152.02600000	      0.00000000	      0.00000000	      0.00000000	      0.00000000	      0.00000000	      0.00000000	      0.00000000	      0.00000000	      0.00000000	     -3.49392519	    194.26488040	    -79.45676891	      0.73606724	      0.00000000	     -0.61193761	      0.00000677	    -12.41876174	      0.00000960
    152.02700000	      0.00000000	      0.00000000	      0.00000000	      0.00000000	      0.00000000	      0.00000000	      0.00000000	      0.00000000	      0.00000000	     -1.30998729	    182.42251272	    -77.16521261	      0.73777098	      0.00000000	     -0.60615202	      0.00000620	     -9.47443306	      0.00000940
    152.02800000	      0.00000000	      0.00000000	      0.00000000	      0.00000000	      0.00000000	      0.00000000	      0.00000000	      0.00000000	      0.00000000	      1.17689227	    171.14838811	    -75.27239195	      0.74001820	      0.00000000	     -0.60117621	      0.00000564	     -6.20911347	      0.00000910
    152.02900000	      0.00000000	      0.00000000	      0.00000000	      0.00000000	      0.00000000	      0.00000000	      0.00000000	      0.00000000	      0.00000000	      3.75450089	    160.41028446	    -73.47681050	      0.74267514	      0.00000000	     -0.59771007	      0.00000510	     -2.77937932	      0.00000870
    152.03000000	      0.00000000	      0.00000000	      0.00000000	      0.00000000	      0.00000000	      0.00000000	      0.00000000	      0.00000000	      0.00000000	      6.19925604	    150.18503397	    -71.48984687	      0.74556601	      0.00000000	     -0.59648878	      0.00000458	      0.65374029	      0.00000820
    152.03100000	      0.00000000	      0.00000000	      0.00000000	      0.00000000	      0.00000000	      0.00000000	      0.00000000	      0.00000000	      0.00000000	      8.29460982	    140.45929281	    -69.07278953	      0.74848021	      0.00000000	     -0.59820280	      0.00000409	      3.93264058	      0.00000764
